<?xml version="1.0" encoding="utf-8"?>
<!-- Generator: Adobe Illustrator 22.0.0, SVG Export Plug-In . SVG Version: 6.00 Build 0)  -->
<svg version="1.1" id="Layer_1" xmlns="http://www.w3.org/2000/svg" xmlns:xlink="http://www.w3.org/1999/xlink" x="0px" y="0px"
	 viewBox="0 0 1280 1024" style="enable-background:new 0 0 1280 1024;" xml:space="preserve">
<style type="text/css">
	.st0{fill:#2E6359;}
	.st1{font-family:'CenturyGothic';}
	.st2{font-size:80.9015px;}
	.st3{fill:#75EA71;}
	.st4{font-size:30px;}
	.st5{fill:#D8F26D;}
	.st6{fill:#ED8FF2;}
	.st7{fill:#020200;}
	.st8{font-size:25px;}
</style>
<g>
	<rect x="0.5" y="0.5" class="st0" width="1279" height="211"/>
	<path d="M1279,1v210H1V1H1279 M1280,0H0v212h1280V0L1280,0z"/>
</g>
<text transform="matrix(0.9869 0 0 1 500.332 135.7148)" class="st1 st2">Header</text>
<rect y="212" class="st3" width="1280" height="91"/>
<text transform="matrix(1 0 0 1 195.3335 267.3335)" class="st1 st4">Стиль жизни</text>
<text transform="matrix(1 0 0 1 481.6665 267.3335)" class="st1 st4">Рецепты</text>
<text transform="matrix(1 0 0 1 706.6665 267)" class="st1 st4">Обзоры</text>
<text transform="matrix(1 0 0 1 932 267)" class="st1 st4">Здоровье</text>
<rect x="23" y="346" class="st5" width="592" height="480"/>
<rect x="663" y="346" class="st5" width="592" height="480"/>
<text transform="matrix(1 0 0 1 189 586.333)" class="st1 st4">Последняя статья 1</text>
<text transform="matrix(1 0 0 1 799.333 586.3335)" class="st1 st4">Предпоследняя статья</text>
<rect x="42" y="923" class="st6" width="400" height="85"/>
<text transform="matrix(1 0 0 1 55 976.667)" class="st7 st1 st8">Присоединяйтесь в соц.сетях</text>
</svg>
